<svg xmlns="http://www.w3.org/2000/svg" version="1.1" xmlns:xlink="http://www.w3.org/1999/xlink" xmlns:svgjs="http://svgjs.dev/svgjs" width="2000" height="2007" viewBox="0 0 2000 2007"><g transform="matrix(1,0,0,1,0,-3.5707290816818613)"><svg viewBox="0 0 280 281" data-background-color="#ffffff" preserveAspectRatio="xMidYMid meet" height="2007" width="2000" xmlns="http://www.w3.org/2000/svg" xmlns:xlink="http://www.w3.org/1999/xlink"><g id="tight-bounds" transform="matrix(1,0,0,1,0,0.4999376541866525)"><svg viewBox="0 0 280 280" height="280" width="280"><g><svg viewBox="0 0 280 280" height="280" width="280"><g><svg viewBox="0 0 280 280" height="280" width="280"><g id="textblocktransform"><svg viewBox="0 0 280 280" height="280" width="280" id="textblock"><g><svg viewBox="0 0 280 280" height="280" width="280"><g transform="matrix(1,0,0,1,90.50252531694167,94.68541050142548)"><svg viewBox="0 0 98.99494936611666 90.62917899714905" height="90.62917899714905" width="98.99494936611666"><g id="icon-0"><svg xmlns="http://www.w3.org/2000/svg" xmlns:xlink="http://www.w3.org/1999/xlink" version="1.1" x="0" y="0" viewBox="15.4 18 71 65" enable-background="new 0 0 100 100" xml:space="preserve" height="90.62917899714905" width="98.99494936611666" class="icon-jxe-0" data-fill-palette-color="accent" id="jxe-0"><g fill="#bb84e8" data-fill-palette-color="accent"><path fill="#bb84e8" d="M86.4 83H15.4V21.8H86.4zM18.4 80H83.4V24.8H18.4z" data-fill-palette-color="accent"></path></g><g fill="#bb84e8" data-fill-palette-color="accent"><rect x="33.2" y="18" fill="#bb84e8" width="3" height="11.3" data-fill-palette-color="accent"></rect></g><g fill="#bb84e8" data-fill-palette-color="accent"><rect x="65.7" y="18" fill="#bb84e8" width="3" height="11.3" data-fill-palette-color="accent"></rect></g><g fill="#bb84e8" data-fill-palette-color="accent"><rect x="28.1" y="32.7" fill="#bb84e8" width="46.2" height="3" data-fill-palette-color="accent"></rect></g><g fill="#bb84e8" data-fill-palette-color="accent"><rect x="29.6" y="47.1" fill="#bb84e8" width="6.7" height="6.7" data-fill-palette-color="accent"></rect></g><g fill="#bb84e8" data-fill-palette-color="accent"><rect x="41.7" y="47.1" fill="#bb84e8" width="6.7" height="6.7" data-fill-palette-color="accent"></rect></g><g fill="#bb84e8" data-fill-palette-color="accent"><rect x="53.9" y="47.1" fill="#bb84e8" width="6.7" height="6.7" data-fill-palette-color="accent"></rect></g><g fill="#bb84e8" data-fill-palette-color="accent"><rect x="66" y="47.1" fill="#bb84e8" width="6.7" height="6.7" data-fill-palette-color="accent"></rect></g><g fill="#bb84e8" data-fill-palette-color="accent"><rect x="29.6" y="59.4" fill="#bb84e8" width="6.7" height="6.7" data-fill-palette-color="accent"></rect></g><g fill="#bb84e8" data-fill-palette-color="accent"><rect x="41.7" y="59.4" fill="#bb84e8" width="6.7" height="6.7" data-fill-palette-color="accent"></rect></g><g fill="#bb84e8" data-fill-palette-color="accent"><rect x="53.9" y="59.4" fill="#bb84e8" width="6.7" height="6.7" data-fill-palette-color="accent"></rect></g><g fill="#bb84e8" data-fill-palette-color="accent"><rect x="66" y="59.4" fill="#bb84e8" width="6.7" height="6.7" data-fill-palette-color="accent"></rect></g></svg></g></svg></g><g id="text-0"><path d="M7.291 103.449l-1.278-0.459 2.991-8.322 1.278 0.46c-0.577 1.825-0.583 2.839-0.019 3.042v0c0.307 0.111 0.777 0.142 1.409 0.094v0l14.052-1.057-9.604-8.748c-0.538-0.476-1.054-0.802-1.547-0.979v0c-0.762-0.274-1.578 0.565-2.446 2.517v0l-1.278-0.46 2.853-7.937 1.278 0.46c-0.187 0.924-0.092 1.746 0.285 2.467v0c0.346 0.667 0.934 1.385 1.765 2.154v0l12.727 11.683-0.473 1.316-18.051 1.226c-1.052 0.07-1.909 0.319-2.569 0.747v0c-0.559 0.349-1.017 0.947-1.373 1.796z" fill="#35185a" data-fill-palette-color="primary"></path><path d="M53.52 43.371l-10.97 11.885 0.218 0.201c1.451 1.339 2.969 2.203 4.555 2.592v0c2.652 0.669 4.902 0.004 6.748-1.997v0c2.041-2.211 2.607-5.102 1.698-8.674v0l1.688-0.067c1.276 4.077 0.61 7.529-1.999 10.355v0c-2.29 2.481-4.996 3.541-8.117 3.179v0c-2.333-0.273-4.525-1.356-6.576-3.249v0c-2.116-1.953-3.395-4.18-3.837-6.682v0c-0.506-3.024 0.277-5.659 2.35-7.905v0c1.454-1.576 3.167-2.538 5.138-2.887v0c2.205-0.401 4.35-0.005 6.435 1.188v0c0.754 0.427 1.459 0.944 2.114 1.548v0zM41.285 53.977l8.768-9.499c-1.595-1.343-3.068-2.081-4.417-2.215v0c-2.002-0.19-3.679 0.448-5.032 1.914v0c-1.27 1.376-1.767 3.094-1.492 5.154v0c0.229 1.638 0.954 3.187 2.173 4.646z" fill="#35185a" data-fill-palette-color="primary"></path><path d="M93.921 30.544l-8.553 3.499-0.514-1.257c1.281-0.59 2.048-1.161 2.3-1.714v0c0.256-0.561 0.174-1.355-0.246-2.381v0l-4.516-11.039c-0.412-1.008-0.905-1.583-1.477-1.723v0c-0.42-0.093-1.294 0.081-2.622 0.521v0l-0.514-1.257c2.016-0.825 3.764-1.812 5.242-2.961v0l1.357 3.317c0.322-1.353 0.951-2.584 1.887-3.695v0c0.831-0.972 1.778-1.676 2.843-2.112v0c2.167-0.887 4.204-0.808 6.109 0.237v0c1.559 0.863 2.803 2.428 3.731 4.696v0l3.185 7.788c0.443 1.084 0.954 1.721 1.532 1.91v0c0.536 0.178 1.483 0.03 2.841-0.445v0l0.514 1.257-8.619 3.526-0.514-1.257c1.15-0.551 1.857-1.098 2.12-1.639v0c0.241-0.489 0.14-1.275-0.303-2.359v0l-3.228-7.891c-0.691-1.689-1.664-2.872-2.919-3.55v0c-1.211-0.659-2.491-0.713-3.839-0.161v0c-2.136 0.874-3.561 2.972-4.276 6.294v0l3.904 9.545c0.436 1.065 0.924 1.692 1.466 1.883v0c0.544 0.197 1.409 0.1 2.595-0.289v0z" fill="#35185a" data-fill-palette-color="primary"></path><path d="M156.49 21.704l-5-0.193-0.273-2.994c-2.089 2.413-4.436 3.569-7.041 3.468v0c-2.741-0.106-4.682-1.277-5.822-3.514v0c-0.684-1.341-0.987-3.022-0.91-5.042v0l0.338-8.755c0.043-1.116-0.157-1.842-0.601-2.179v0c-0.364-0.266-1.256-0.471-2.674-0.614v0l0.052-1.357c1.994 0.063 4.003-0.111 6.029-0.524v0l-0.516 13.387c-0.08 2.068 0.349 3.678 1.285 4.832v0c0.819 1.013 1.977 1.548 3.474 1.605v0c2.388 0.092 4.492-1.23 6.315-3.967v0l0.41-10.652c0.044-1.15-0.179-1.887-0.671-2.213v0c-0.358-0.245-1.223-0.439-2.593-0.58v0l0.052-1.357c2.218 0.072 4.234-0.103 6.049-0.523v0l-0.622 16.142c-0.054 1.408 0.12 2.365 0.523 2.871v0c0.312 0.4 1.061 0.668 2.248 0.802v0z" fill="#35185a" data-fill-palette-color="primary"></path><path d="M206.214 28.398l-14.577-7.007-0.128 0.267c-0.855 1.779-1.237 3.484-1.145 5.114v0c0.137 2.732 1.432 4.688 3.887 5.868v0c2.712 1.304 5.642 0.998 8.791-0.918v0l0.559 1.594c-3.525 2.414-7.02 2.788-10.487 1.123v0c-3.043-1.463-4.849-3.74-5.418-6.831v0c-0.423-2.31-0.029-4.723 1.18-7.239v0c1.248-2.595 3.003-4.471 5.265-5.626v0c2.743-1.37 5.492-1.393 8.247-0.069v0c1.933 0.929 3.354 2.285 4.265 4.067v0c1.03 1.99 1.279 4.157 0.75 6.501v0c-0.188 0.846-0.475 1.671-0.861 2.475v0zM192.489 19.806l11.651 5.601c0.817-1.919 1.091-3.543 0.824-4.872v0c-0.405-1.97-1.506-3.387-3.304-4.251v0c-1.687-0.811-3.476-0.783-5.365 0.084v0c-1.499 0.699-2.768 1.845-3.806 3.438z" fill="#35185a" data-fill-palette-color="primary"></path><path d="M231.847 64.143l-6.473-7.1 1.003-0.915c1.068 1.081 1.915 1.626 2.541 1.635v0c0.554 0.011 1.233-0.35 2.038-1.084v0l14.941-13.621c0.795-0.725 1.157-1.378 1.088-1.959v0c-0.058-0.518-0.523-1.296-1.396-2.334v0l1.004-0.915c1.51 1.636 3.053 2.955 4.631 3.958v0l-18.472 16.84c-0.875 0.798-1.308 1.496-1.297 2.094v0c0.014 0.54 0.479 1.369 1.396 2.486v0z" fill="#35185a" data-fill-palette-color="primary"></path><path d="M264.631 81.354l1.274-0.469 3.307 8.967-1.274 0.47c-0.547-1.09-0.937-1.755-1.171-1.996v0c-0.361-0.389-0.698-0.526-1.012-0.41v0c-0.377 0.139-0.75 0.415-1.12 0.827v0l-8.369 8.854 10.692 0.78c0.726 0.059 1.296 0.012 1.711-0.141v0c1.028-0.379 1.349-1.488 0.961-3.325v0l1.274-0.47 3.077 8.344-1.274 0.47c-0.413-1.081-1.166-1.815-2.26-2.203v0c-0.795-0.287-1.867-0.487-3.214-0.6v0l-14.4-1.274c-1.81-0.167-3.292-0.447-4.446-0.841v0c-1.901-0.67-3.135-1.772-3.7-3.305v0c-0.278-0.754-0.348-1.515-0.211-2.284v0c0.218-1.336 0.902-2.216 2.052-2.639v0c0.632-0.233 1.241-0.215 1.827 0.055v0c0.516 0.238 0.875 0.631 1.078 1.181v0c0.205 0.556 0.184 1.079-0.064 1.569v0c-0.258 0.501-0.687 0.863-1.287 1.084v0c-0.632 0.233-1.301 0.121-2.007-0.337v0c0.407 1.105 1.065 1.875 1.972 2.309v0c0.814 0.396 1.938 0.682 3.374 0.856v0l1.719 0.204 10.291-10.902c1.186-1.25 1.586-2.841 1.2-4.774z" fill="#35185a" data-fill-palette-color="primary"></path><path d="M24.068 170.393l1.315-0.476 3.092 8.535-1.315 0.476c-0.738-1.818-1.395-2.622-1.971-2.414v0c-0.32 0.116-0.713 0.4-1.18 0.851v0l-10.413 10.049 13.33 0.613c0.735 0.031 1.355-0.046 1.861-0.229v0c0.781-0.283 0.875-1.483 0.282-3.599v0l1.315-0.477 2.953 8.151-1.316 0.477c-0.455-0.856-1.067-1.445-1.835-1.768v0c-0.718-0.304-1.657-0.486-2.814-0.545v0l-17.72-0.89-0.487-1.344 13.465-12.805c0.784-0.755 1.297-1.516 1.54-2.285v0c0.21-0.641 0.176-1.414-0.102-2.32z" fill="#35185a" data-fill-palette-color="primary"></path><path d="M54.185 236.593l-11.285-12.192-0.218 0.201c-1.489 1.378-2.5 2.861-3.033 4.45v0c-0.893 2.663-0.391 5.019 1.505 7.067v0c2.104 2.273 5.021 3.089 8.75 2.447v0l-0.074 1.739c-4.272 0.977-7.751 0.014-10.438-2.888v0c-2.358-2.548-3.226-5.404-2.603-8.569v0c0.462-2.367 1.747-4.526 3.855-6.477v0c2.168-2.007 4.553-3.134 7.154-3.381v0c3.137-0.279 5.774 0.736 7.91 3.044v0c1.494 1.614 2.341 3.445 2.541 5.496v0c0.234 2.288-0.343 4.45-1.731 6.487v0c-0.501 0.742-1.088 1.425-1.763 2.049v0zM44.312 223.191l9.031 9.756c1.499-1.527 2.367-2.975 2.603-4.343v0c0.368-2.038-0.144-3.809-1.536-5.312v0c-1.309-1.414-3.032-2.058-5.172-1.934v0c-1.694 0.094-3.337 0.705-4.926 1.833z" fill="#35185a" data-fill-palette-color="primary"></path><path d="M86.268 268.448l-8.784-3.58 0.528-1.295c1.36 0.488 2.331 0.619 2.915 0.394v0c0.591-0.222 1.102-0.863 1.534-1.922v0l4.62-11.338c0.424-1.04 0.476-1.817 0.156-2.329v0c-0.245-0.372-1.012-0.872-2.3-1.5v0l0.528-1.295c2.074 0.845 4.063 1.376 5.966 1.594v0l-1.387 3.404c1.206-0.758 2.55-1.206 4.032-1.345v0c1.313-0.119 2.518 0.045 3.615 0.492v0c2.225 0.907 3.663 2.43 4.313 4.569v0c0.522 1.749 0.308 3.79-0.643 6.122v0l-3.26 8c-0.457 1.122-0.538 1.96-0.242 2.515v0c0.262 0.511 1.06 1.079 2.393 1.703v0l-0.528 1.295-8.86-3.611 0.528-1.295c1.245 0.426 2.16 0.535 2.745 0.325v0c0.521-0.177 1.01-0.827 1.467-1.949v0l3.307-8.113c0.707-1.734 0.841-3.3 0.404-4.698v0c-0.412-1.351-1.312-2.31-2.699-2.875v0c-2.187-0.891-4.742-0.378-7.663 1.541v0l-3.996 9.805c-0.447 1.097-0.539 1.908-0.276 2.435v0c0.258 0.539 0.963 1.091 2.115 1.656v0z" fill="#35185a" data-fill-palette-color="primary"></path><path d="M157.752 278.717l-5.132 0.203-0.519-3.035c-1.946 2.632-4.26 4.001-6.94 4.107v0c-2.816 0.112-4.898-0.934-6.245-3.135v0c-0.808-1.317-1.254-3.013-1.336-5.087v0l-0.356-8.989c-0.046-1.15-0.306-1.878-0.781-2.187v0c-0.398-0.25-1.33-0.387-2.796-0.41v0l-0.055-1.398c2.054-0.095 4.101-0.435 6.142-1.02v0l0.544 13.743c0.084 2.129 0.652 3.745 1.705 4.848v0c0.917 0.972 2.141 1.428 3.671 1.367v0c2.456-0.097 4.507-1.619 6.155-4.566v0l-0.433-10.938c-0.047-1.184-0.335-1.922-0.864-2.214v0c-0.391-0.23-1.292-0.358-2.703-0.383v0l-0.056-1.398c2.278-0.104 4.332-0.444 6.163-1.021v0l0.657 16.58c0.057 1.442 0.306 2.406 0.748 2.893v0c0.356 0.388 1.148 0.602 2.375 0.642v0z" fill="#35185a" data-fill-palette-color="primary"></path><path d="M206.35 250.956l-14.97 7.203 0.128 0.267c0.879 1.828 2 3.23 3.361 4.207v0c2.283 1.636 4.682 1.849 7.197 0.639v0c2.791-1.343 4.428-3.891 4.912-7.643v0l1.64 0.582c-0.322 4.37-2.265 7.413-5.83 9.127v0c-3.128 1.505-6.114 1.495-8.955-0.031v0c-2.126-1.138-3.812-3.001-5.057-5.589v0c-1.281-2.662-1.657-5.273-1.128-7.832v0c0.656-3.08 2.401-5.302 5.235-6.665v0c1.981-0.953 3.981-1.224 6-0.813v0c2.255 0.448 4.152 1.636 5.691 3.562v0c0.562 0.697 1.042 1.459 1.44 2.287v0zM190.638 256.453l11.981-5.764c-1.019-1.882-2.147-3.137-3.386-3.764v0c-1.84-0.951-3.683-0.982-5.53-0.093v0c-1.736 0.835-2.859 2.293-3.368 4.374v0c-0.409 1.647-0.307 3.396 0.303 5.247z" fill="#35185a" data-fill-palette-color="primary"></path><path d="M247.076 229.627l-6.661 7.289-1.032-0.944c1.011-1.197 1.493-2.113 1.445-2.747v0c-0.04-0.572-0.475-1.236-1.304-1.994v0l-15.325-14.003c-0.819-0.749-1.524-1.056-2.115-0.924v0c-0.521 0.096-1.272 0.645-2.254 1.648v0l-1.032-0.944c1.537-1.703 2.745-3.407 3.622-5.114v0l18.95 17.317c0.899 0.822 1.656 1.2 2.269 1.134v0c0.546-0.063 1.348-0.617 2.405-1.662v0z" fill="#35185a" data-fill-palette-color="primary"></path><path d="M247.631 192.92l-1.311-0.488 3.419-9.197 1.311 0.487c-0.307 1.215-0.451 1.993-0.432 2.334v0c0.029 0.548 0.202 0.881 0.522 1v0c0.389 0.145 0.862 0.182 1.418 0.114v0l12.451-1.319-7.805-7.75c-0.529-0.531-1.004-0.874-1.425-1.031v0c-1.066-0.396-2.059 0.255-2.981 1.953v0l-1.312-0.487 3.185-8.566 1.311 0.487c-0.406 1.113-0.313 2.19 0.281 3.231v0c0.433 0.749 1.137 1.621 2.111 2.615v0l10.366 10.619c1.302 1.341 2.269 2.55 2.9 3.627v0c1.037 1.802 1.265 3.484 0.683 5.048v0c-0.289 0.778-0.743 1.423-1.361 1.934v0c-1.071 0.887-2.196 1.112-3.377 0.672v0c-0.644-0.24-1.106-0.658-1.385-1.255v0c-0.245-0.534-0.261-1.085-0.05-1.653v0c0.209-0.561 0.577-0.955 1.103-1.18v0c0.537-0.214 1.112-0.207 1.725 0.02v0c0.651 0.242 1.098 0.779 1.34 1.61v0c0.422-1.136 0.425-2.177 0.007-3.124v0c-0.367-0.848-1.051-1.822-2.052-2.92v0l-1.202-1.308-15.318 1.615c-1.759 0.181-3.134 1.152-4.122 2.912z" fill="#35185a" data-fill-palette-color="primary"></path><path d="M0.122 139.948c0-6.196 5.022-11.218 11.218-11.218 6.196 0 11.218 5.022 11.218 11.218 0 6.196-5.022 11.218-11.218 11.219-6.196 0-11.218-5.022-11.218-11.219z" fill="#35185a" data-fill-palette-color="primary"></path><path d="M257.442 139.948c0-6.196 5.022-11.218 11.218-11.218 6.196 0 11.218 5.022 11.218 11.218 0 6.196-5.022 11.218-11.218 11.219-6.196 0-11.218-5.022-11.218-11.219z" fill="#35185a" data-fill-palette-color="primary"></path></g><g id="text-1"></g></svg></g></svg></g></svg></g></svg></g><defs></defs></svg><rect width="280" height="280" fill="none" stroke="none" visibility="hidden"></rect></g></svg></g></svg>